<svg width="75" height="18" viewBox="0 0 75 18" fill="none" xmlns="http://www.w3.org/2000/svg">
<path d="M0.517045 0.545454H5.06818L9.875 12.2727H10.0795L14.8864 0.545454H19.4375V18H15.858V6.6392H15.7131L11.196 17.9148H8.75852L4.24148 6.59659H4.09659V18H0.517045V0.545454ZM22.478 18V0.545454H34.2393V3.58807H26.1683V7.74716H33.6342V10.7898H26.1683V14.9574H34.2734V18H22.478ZM37.1733 0.545454H41.7244L46.5312 12.2727H46.7358L51.5426 0.545454H56.0938V18H52.5142V6.6392H52.3693L47.8523 17.9148H45.4148L40.8977 6.59659H40.7528V18H37.1733V0.545454ZM62.5945 0.545454L66.1143 6.49432H66.2507L69.7876 0.545454H73.9553L68.6286 9.27273L74.0746 18H69.8303L66.2507 12.0426H66.1143L62.5348 18H58.3075L63.7706 9.27273L58.4098 0.545454H62.5945Z" fill="black"/>
</svg>
